<?xml version="1.0" encoding="utf-8"?>
<svg viewBox="97.016 80.777 43 32.25" width="43" height="32.25" xmlns="http://www.w3.org/2000/svg">
  <path d="M 100.164 88.378 L 97.016 91.527 L 100.817 95.328 L 103.965 92.179 C 107.824 88.32 113.058 86.152 118.516 86.152 C 123.973 86.152 129.208 88.32 133.067 92.179 L 136.215 95.328 L 140.016 91.527 L 136.867 88.378 C 132 83.511 125.399 80.777 118.516 80.777 C 111.633 80.777 105.032 83.511 100.164 88.378 Z" fill="#95d1b0" style="fill-opacity: 0.9; opacity: 1;" transform="matrix(0.9999999999999999, 0, 0, 0.9999999999999999, 0, -3.552713678800501e-15)"/>
  <path d="M 132.415 99.128 L 129.266 95.98 C 126.415 93.129 122.548 91.527 118.516 91.527 C 114.484 91.527 110.617 93.129 107.766 95.98 L 104.617 99.128 L 108.418 102.929 L 111.567 99.781 C 113.41 97.937 115.909 96.902 118.516 96.902 C 121.122 96.902 123.622 97.937 125.465 99.781 L 128.614 102.929 L 132.415 99.128 Z" fill="#95d1b0" style="opacity: 1;" transform="matrix(0.9999999999999999, 0, 0, 0.9999999999999999, 0, -3.552713678800501e-15)"/>
  <path d="M 124.813 106.73 L 121.664 103.581 C 120.829 102.746 119.697 102.277 118.516 102.277 C 117.335 102.277 116.202 102.746 115.367 103.581 L 112.219 106.73 L 118.516 113.027 L 124.813 106.73 Z" fill="#95d1b0" transform="matrix(0.9999999999999999, 0, 0, 0.9999999999999999, 0, -3.552713678800501e-15)"/>
</svg>